<mxfile host="app.diagrams.net" modified="2023-05-30T08:30:21.213Z" agent="Mozilla/5.0 (Windows NT 10.0; Win64; x64) AppleWebKit/537.36 (KHTML, like Gecko) Chrome/113.0.0.0 Safari/537.36" etag="FWJ8x2CJviMvQyKWgzxR" version="21.3.5" type="github">
  <diagram id="C5RBs43oDa-KdzZeNtuy" name="Page-1">
    <mxGraphModel dx="1313" dy="716" grid="1" gridSize="10" guides="1" tooltips="1" connect="1" arrows="1" fold="1" page="1" pageScale="1" pageWidth="827" pageHeight="1169" background="#ffffff" math="0" shadow="0">
      <root>
        <mxCell id="WIyWlLk6GJQsqaUBKTNV-0" />
        <mxCell id="WIyWlLk6GJQsqaUBKTNV-1" parent="WIyWlLk6GJQsqaUBKTNV-0" />
        <mxCell id="36LwxEdcm0CLBOZFysbZ-0" value="" style="shape=actor;whiteSpace=wrap;html=1;rounded=1;fillColor=#b0e3e6;strokeColor=#0e8088;" vertex="1" parent="WIyWlLk6GJQsqaUBKTNV-1">
          <mxGeometry x="37" y="226" width="40" height="60" as="geometry" />
        </mxCell>
        <mxCell id="36LwxEdcm0CLBOZFysbZ-3" value="" style="shape=actor;whiteSpace=wrap;html=1;fillColor=#b0e3e6;strokeColor=#0e8088;" vertex="1" parent="WIyWlLk6GJQsqaUBKTNV-1">
          <mxGeometry x="740" y="257" width="40" height="60" as="geometry" />
        </mxCell>
        <mxCell id="36LwxEdcm0CLBOZFysbZ-4" value="회원" style="text;html=1;align=center;verticalAlign=middle;resizable=0;points=[];autosize=1;strokeColor=none;fillColor=none;" vertex="1" parent="WIyWlLk6GJQsqaUBKTNV-1">
          <mxGeometry x="32" y="285" width="50" height="30" as="geometry" />
        </mxCell>
        <mxCell id="36LwxEdcm0CLBOZFysbZ-5" value="비회원" style="text;html=1;align=center;verticalAlign=middle;resizable=0;points=[];autosize=1;strokeColor=none;fillColor=none;" vertex="1" parent="WIyWlLk6GJQsqaUBKTNV-1">
          <mxGeometry x="730" y="320" width="60" height="30" as="geometry" />
        </mxCell>
        <mxCell id="36LwxEdcm0CLBOZFysbZ-7" value="공모주 청약 일정 조회" style="ellipse;whiteSpace=wrap;html=1;" vertex="1" parent="WIyWlLk6GJQsqaUBKTNV-1">
          <mxGeometry x="300" y="379" width="138" height="60" as="geometry" />
        </mxCell>
        <mxCell id="36LwxEdcm0CLBOZFysbZ-8" value="카드뉴스 조회" style="ellipse;whiteSpace=wrap;html=1;" vertex="1" parent="WIyWlLk6GJQsqaUBKTNV-1">
          <mxGeometry x="303" y="464" width="130" height="50" as="geometry" />
        </mxCell>
        <mxCell id="36LwxEdcm0CLBOZFysbZ-9" value="관심 기업 추가" style="ellipse;whiteSpace=wrap;html=1;" vertex="1" parent="WIyWlLk6GJQsqaUBKTNV-1">
          <mxGeometry x="200" y="106" width="120" height="53" as="geometry" />
        </mxCell>
        <mxCell id="36LwxEdcm0CLBOZFysbZ-10" value="커뮤니티 글" style="ellipse;whiteSpace=wrap;html=1;" vertex="1" parent="WIyWlLk6GJQsqaUBKTNV-1">
          <mxGeometry x="200" y="165.5" width="120" height="50" as="geometry" />
        </mxCell>
        <mxCell id="36LwxEdcm0CLBOZFysbZ-12" value="댓글 작성" style="ellipse;whiteSpace=wrap;html=1;" vertex="1" parent="WIyWlLk6GJQsqaUBKTNV-1">
          <mxGeometry x="200" y="220" width="120" height="45" as="geometry" />
        </mxCell>
        <mxCell id="36LwxEdcm0CLBOZFysbZ-13" value="공모 기업 상세 조회 및 추천" style="ellipse;whiteSpace=wrap;html=1;" vertex="1" parent="WIyWlLk6GJQsqaUBKTNV-1">
          <mxGeometry x="308" y="541" width="120" height="60" as="geometry" />
        </mxCell>
        <mxCell id="36LwxEdcm0CLBOZFysbZ-14" value="커뮤니티 글 조회" style="ellipse;whiteSpace=wrap;html=1;" vertex="1" parent="WIyWlLk6GJQsqaUBKTNV-1">
          <mxGeometry x="393" y="280" width="110" height="43" as="geometry" />
        </mxCell>
        <mxCell id="36LwxEdcm0CLBOZFysbZ-15" value="" style="shape=actor;whiteSpace=wrap;html=1;fillColor=#b0e3e6;strokeColor=#0e8088;" vertex="1" parent="WIyWlLk6GJQsqaUBKTNV-1">
          <mxGeometry x="40" y="640" width="40" height="60" as="geometry" />
        </mxCell>
        <mxCell id="36LwxEdcm0CLBOZFysbZ-16" value="관리자" style="text;html=1;align=center;verticalAlign=middle;resizable=0;points=[];autosize=1;strokeColor=none;fillColor=none;" vertex="1" parent="WIyWlLk6GJQsqaUBKTNV-1">
          <mxGeometry x="30" y="700" width="60" height="30" as="geometry" />
        </mxCell>
        <mxCell id="36LwxEdcm0CLBOZFysbZ-17" value="카드 컨텐츠 관리" style="ellipse;whiteSpace=wrap;html=1;" vertex="1" parent="WIyWlLk6GJQsqaUBKTNV-1">
          <mxGeometry x="294" y="655" width="120" height="80" as="geometry" />
        </mxCell>
        <mxCell id="36LwxEdcm0CLBOZFysbZ-18" value="회사 정보 관리" style="ellipse;whiteSpace=wrap;html=1;" vertex="1" parent="WIyWlLk6GJQsqaUBKTNV-1">
          <mxGeometry x="294" y="799" width="120" height="80" as="geometry" />
        </mxCell>
        <mxCell id="36LwxEdcm0CLBOZFysbZ-21" value="" style="endArrow=classic;html=1;rounded=0;exitX=1;exitY=0.75;exitDx=0;exitDy=0;entryX=0;entryY=0.5;entryDx=0;entryDy=0;" edge="1" parent="WIyWlLk6GJQsqaUBKTNV-1" source="36LwxEdcm0CLBOZFysbZ-0" target="36LwxEdcm0CLBOZFysbZ-23">
          <mxGeometry width="50" height="50" relative="1" as="geometry">
            <mxPoint x="80" y="126" as="sourcePoint" />
            <mxPoint x="200" y="100" as="targetPoint" />
          </mxGeometry>
        </mxCell>
        <mxCell id="36LwxEdcm0CLBOZFysbZ-23" value="로그인/회원가입" style="ellipse;whiteSpace=wrap;html=1;" vertex="1" parent="WIyWlLk6GJQsqaUBKTNV-1">
          <mxGeometry x="200" y="50" width="120" height="50" as="geometry" />
        </mxCell>
        <mxCell id="36LwxEdcm0CLBOZFysbZ-28" value="" style="endArrow=classic;html=1;rounded=0;exitX=1;exitY=0.75;exitDx=0;exitDy=0;entryX=0;entryY=0.5;entryDx=0;entryDy=0;" edge="1" parent="WIyWlLk6GJQsqaUBKTNV-1" source="36LwxEdcm0CLBOZFysbZ-0" target="36LwxEdcm0CLBOZFysbZ-9">
          <mxGeometry width="50" height="50" relative="1" as="geometry">
            <mxPoint x="430" y="330" as="sourcePoint" />
            <mxPoint x="210" y="140" as="targetPoint" />
            <Array as="points" />
          </mxGeometry>
        </mxCell>
        <mxCell id="36LwxEdcm0CLBOZFysbZ-30" value="" style="endArrow=classic;html=1;rounded=0;exitX=1;exitY=0.75;exitDx=0;exitDy=0;entryX=0;entryY=0.34;entryDx=0;entryDy=0;entryPerimeter=0;" edge="1" parent="WIyWlLk6GJQsqaUBKTNV-1" source="36LwxEdcm0CLBOZFysbZ-0" target="36LwxEdcm0CLBOZFysbZ-10">
          <mxGeometry width="50" height="50" relative="1" as="geometry">
            <mxPoint x="430" y="330" as="sourcePoint" />
            <mxPoint x="210" y="180" as="targetPoint" />
          </mxGeometry>
        </mxCell>
        <mxCell id="36LwxEdcm0CLBOZFysbZ-31" value="" style="endArrow=classic;html=1;rounded=0;exitX=1;exitY=0.75;exitDx=0;exitDy=0;entryX=-0.023;entryY=0.324;entryDx=0;entryDy=0;entryPerimeter=0;" edge="1" parent="WIyWlLk6GJQsqaUBKTNV-1" source="36LwxEdcm0CLBOZFysbZ-0" target="36LwxEdcm0CLBOZFysbZ-12">
          <mxGeometry width="50" height="50" relative="1" as="geometry">
            <mxPoint x="430" y="330" as="sourcePoint" />
            <mxPoint x="210" y="220" as="targetPoint" />
          </mxGeometry>
        </mxCell>
        <mxCell id="36LwxEdcm0CLBOZFysbZ-32" value="" style="endArrow=classic;html=1;rounded=0;exitX=1;exitY=0.5;exitDx=0;exitDy=0;entryX=0.02;entryY=0.669;entryDx=0;entryDy=0;entryPerimeter=0;" edge="1" parent="WIyWlLk6GJQsqaUBKTNV-1" source="36LwxEdcm0CLBOZFysbZ-10" target="36LwxEdcm0CLBOZFysbZ-33">
          <mxGeometry width="50" height="50" relative="1" as="geometry">
            <mxPoint x="430" y="360" as="sourcePoint" />
            <mxPoint x="420" y="140" as="targetPoint" />
          </mxGeometry>
        </mxCell>
        <mxCell id="36LwxEdcm0CLBOZFysbZ-33" value="글 작성" style="ellipse;whiteSpace=wrap;html=1;" vertex="1" parent="WIyWlLk6GJQsqaUBKTNV-1">
          <mxGeometry x="418" y="101" width="60" height="49" as="geometry" />
        </mxCell>
        <mxCell id="36LwxEdcm0CLBOZFysbZ-34" value="글 수정" style="ellipse;whiteSpace=wrap;html=1;" vertex="1" parent="WIyWlLk6GJQsqaUBKTNV-1">
          <mxGeometry x="418" y="158" width="60" height="50" as="geometry" />
        </mxCell>
        <mxCell id="36LwxEdcm0CLBOZFysbZ-35" value="글 삭제" style="ellipse;whiteSpace=wrap;html=1;" vertex="1" parent="WIyWlLk6GJQsqaUBKTNV-1">
          <mxGeometry x="418" y="215" width="60" height="50" as="geometry" />
        </mxCell>
        <mxCell id="36LwxEdcm0CLBOZFysbZ-36" value="" style="endArrow=classic;html=1;rounded=0;exitX=1;exitY=0.5;exitDx=0;exitDy=0;entryX=0;entryY=0.376;entryDx=0;entryDy=0;entryPerimeter=0;" edge="1" parent="WIyWlLk6GJQsqaUBKTNV-1">
          <mxGeometry width="50" height="50" relative="1" as="geometry">
            <mxPoint x="321" y="190.5" as="sourcePoint" />
            <mxPoint x="419" y="235.79999999999995" as="targetPoint" />
          </mxGeometry>
        </mxCell>
        <mxCell id="36LwxEdcm0CLBOZFysbZ-37" value="" style="endArrow=classic;html=1;rounded=0;exitX=1;exitY=0.5;exitDx=0;exitDy=0;entryX=0;entryY=0.5;entryDx=0;entryDy=0;" edge="1" parent="WIyWlLk6GJQsqaUBKTNV-1" source="36LwxEdcm0CLBOZFysbZ-10" target="36LwxEdcm0CLBOZFysbZ-34">
          <mxGeometry width="50" height="50" relative="1" as="geometry">
            <mxPoint x="390" y="200" as="sourcePoint" />
            <mxPoint x="420" y="180" as="targetPoint" />
          </mxGeometry>
        </mxCell>
        <mxCell id="36LwxEdcm0CLBOZFysbZ-38" value="" style="endArrow=classic;html=1;rounded=0;exitX=1;exitY=0.5;exitDx=0;exitDy=0;entryX=0;entryY=0;entryDx=0;entryDy=0;" edge="1" parent="WIyWlLk6GJQsqaUBKTNV-1" source="36LwxEdcm0CLBOZFysbZ-10" target="36LwxEdcm0CLBOZFysbZ-14">
          <mxGeometry width="50" height="50" relative="1" as="geometry">
            <mxPoint x="390" y="210" as="sourcePoint" />
            <mxPoint x="400" y="290" as="targetPoint" />
          </mxGeometry>
        </mxCell>
        <mxCell id="36LwxEdcm0CLBOZFysbZ-39" value="" style="endArrow=classic;html=1;rounded=0;exitX=0;exitY=0.75;exitDx=0;exitDy=0;entryX=1;entryY=0.5;entryDx=0;entryDy=0;" edge="1" parent="WIyWlLk6GJQsqaUBKTNV-1" source="36LwxEdcm0CLBOZFysbZ-3" target="36LwxEdcm0CLBOZFysbZ-14">
          <mxGeometry width="50" height="50" relative="1" as="geometry">
            <mxPoint x="430" y="360" as="sourcePoint" />
            <mxPoint x="480" y="310" as="targetPoint" />
          </mxGeometry>
        </mxCell>
        <mxCell id="36LwxEdcm0CLBOZFysbZ-465" value="" style="endArrow=classic;html=1;rounded=0;exitX=0;exitY=0.75;exitDx=0;exitDy=0;entryX=0.959;entryY=0.263;entryDx=0;entryDy=0;entryPerimeter=0;" edge="1" parent="WIyWlLk6GJQsqaUBKTNV-1" source="36LwxEdcm0CLBOZFysbZ-3" target="36LwxEdcm0CLBOZFysbZ-7">
          <mxGeometry width="50" height="50" relative="1" as="geometry">
            <mxPoint x="438" y="400" as="sourcePoint" />
            <mxPoint x="488" y="350" as="targetPoint" />
          </mxGeometry>
        </mxCell>
        <mxCell id="36LwxEdcm0CLBOZFysbZ-466" value="" style="endArrow=classic;html=1;rounded=0;exitX=1;exitY=0.75;exitDx=0;exitDy=0;entryX=0.014;entryY=0.397;entryDx=0;entryDy=0;entryPerimeter=0;" edge="1" parent="WIyWlLk6GJQsqaUBKTNV-1" source="36LwxEdcm0CLBOZFysbZ-0" target="36LwxEdcm0CLBOZFysbZ-7">
          <mxGeometry width="50" height="50" relative="1" as="geometry">
            <mxPoint x="390" y="380" as="sourcePoint" />
            <mxPoint x="440" y="330" as="targetPoint" />
          </mxGeometry>
        </mxCell>
        <mxCell id="36LwxEdcm0CLBOZFysbZ-467" value="" style="endArrow=classic;html=1;rounded=0;exitX=1;exitY=0.75;exitDx=0;exitDy=0;entryX=0.054;entryY=0.2;entryDx=0;entryDy=0;entryPerimeter=0;" edge="1" parent="WIyWlLk6GJQsqaUBKTNV-1" source="36LwxEdcm0CLBOZFysbZ-0" target="36LwxEdcm0CLBOZFysbZ-8">
          <mxGeometry width="50" height="50" relative="1" as="geometry">
            <mxPoint x="90" y="360" as="sourcePoint" />
            <mxPoint x="140" y="310" as="targetPoint" />
          </mxGeometry>
        </mxCell>
        <mxCell id="36LwxEdcm0CLBOZFysbZ-468" value="" style="endArrow=classic;html=1;rounded=0;exitX=0;exitY=0.75;exitDx=0;exitDy=0;entryX=1;entryY=0.5;entryDx=0;entryDy=0;" edge="1" parent="WIyWlLk6GJQsqaUBKTNV-1" source="36LwxEdcm0CLBOZFysbZ-3" target="36LwxEdcm0CLBOZFysbZ-8">
          <mxGeometry width="50" height="50" relative="1" as="geometry">
            <mxPoint x="380" y="420" as="sourcePoint" />
            <mxPoint x="430" y="370" as="targetPoint" />
          </mxGeometry>
        </mxCell>
        <mxCell id="36LwxEdcm0CLBOZFysbZ-469" value="" style="endArrow=classic;html=1;rounded=0;entryX=1;entryY=0.5;entryDx=0;entryDy=0;exitX=0;exitY=0.75;exitDx=0;exitDy=0;" edge="1" parent="WIyWlLk6GJQsqaUBKTNV-1" source="36LwxEdcm0CLBOZFysbZ-3" target="36LwxEdcm0CLBOZFysbZ-13">
          <mxGeometry width="50" height="50" relative="1" as="geometry">
            <mxPoint x="390" y="420" as="sourcePoint" />
            <mxPoint x="440" y="370" as="targetPoint" />
          </mxGeometry>
        </mxCell>
        <mxCell id="36LwxEdcm0CLBOZFysbZ-470" value="" style="endArrow=classic;html=1;rounded=0;exitX=1;exitY=0.75;exitDx=0;exitDy=0;entryX=0;entryY=0.5;entryDx=0;entryDy=0;" edge="1" parent="WIyWlLk6GJQsqaUBKTNV-1" source="36LwxEdcm0CLBOZFysbZ-0" target="36LwxEdcm0CLBOZFysbZ-13">
          <mxGeometry width="50" height="50" relative="1" as="geometry">
            <mxPoint x="400" y="450" as="sourcePoint" />
            <mxPoint x="450" y="400" as="targetPoint" />
          </mxGeometry>
        </mxCell>
        <mxCell id="36LwxEdcm0CLBOZFysbZ-472" value="" style="endArrow=classic;html=1;rounded=0;exitX=1;exitY=0.75;exitDx=0;exitDy=0;entryX=0;entryY=0.5;entryDx=0;entryDy=0;" edge="1" parent="WIyWlLk6GJQsqaUBKTNV-1" source="36LwxEdcm0CLBOZFysbZ-15" target="36LwxEdcm0CLBOZFysbZ-17">
          <mxGeometry width="50" height="50" relative="1" as="geometry">
            <mxPoint x="390" y="660" as="sourcePoint" />
            <mxPoint x="440" y="610" as="targetPoint" />
          </mxGeometry>
        </mxCell>
        <mxCell id="36LwxEdcm0CLBOZFysbZ-473" value="" style="endArrow=classic;html=1;rounded=0;exitX=1;exitY=0.75;exitDx=0;exitDy=0;entryX=0.019;entryY=0.39;entryDx=0;entryDy=0;entryPerimeter=0;" edge="1" parent="WIyWlLk6GJQsqaUBKTNV-1" source="36LwxEdcm0CLBOZFysbZ-15" target="36LwxEdcm0CLBOZFysbZ-18">
          <mxGeometry width="50" height="50" relative="1" as="geometry">
            <mxPoint x="390" y="660" as="sourcePoint" />
            <mxPoint x="290" y="800" as="targetPoint" />
          </mxGeometry>
        </mxCell>
        <mxCell id="36LwxEdcm0CLBOZFysbZ-474" value="카드 뉴스 추가" style="ellipse;whiteSpace=wrap;html=1;" vertex="1" parent="WIyWlLk6GJQsqaUBKTNV-1">
          <mxGeometry x="483" y="640" width="110" height="40" as="geometry" />
        </mxCell>
        <mxCell id="36LwxEdcm0CLBOZFysbZ-475" value="파일 수정" style="ellipse;whiteSpace=wrap;html=1;" vertex="1" parent="WIyWlLk6GJQsqaUBKTNV-1">
          <mxGeometry x="489.5" y="690" width="97" height="40" as="geometry" />
        </mxCell>
        <mxCell id="36LwxEdcm0CLBOZFysbZ-476" value="파일 삭제" style="ellipse;whiteSpace=wrap;html=1;" vertex="1" parent="WIyWlLk6GJQsqaUBKTNV-1">
          <mxGeometry x="483" y="592" width="90" height="40" as="geometry" />
        </mxCell>
        <mxCell id="36LwxEdcm0CLBOZFysbZ-477" value="카드 뉴스 삭제" style="ellipse;whiteSpace=wrap;html=1;" vertex="1" parent="WIyWlLk6GJQsqaUBKTNV-1">
          <mxGeometry x="493" y="740" width="100" height="50" as="geometry" />
        </mxCell>
        <mxCell id="36LwxEdcm0CLBOZFysbZ-479" value="" style="endArrow=classic;html=1;rounded=0;entryX=0.002;entryY=0.763;entryDx=0;entryDy=0;entryPerimeter=0;exitX=1;exitY=0.5;exitDx=0;exitDy=0;" edge="1" parent="WIyWlLk6GJQsqaUBKTNV-1" source="36LwxEdcm0CLBOZFysbZ-17" target="36LwxEdcm0CLBOZFysbZ-476">
          <mxGeometry width="50" height="50" relative="1" as="geometry">
            <mxPoint x="410" y="680" as="sourcePoint" />
            <mxPoint x="440" y="610" as="targetPoint" />
          </mxGeometry>
        </mxCell>
        <mxCell id="36LwxEdcm0CLBOZFysbZ-480" value="" style="endArrow=classic;html=1;rounded=0;entryX=0;entryY=0.5;entryDx=0;entryDy=0;exitX=1;exitY=0.5;exitDx=0;exitDy=0;" edge="1" parent="WIyWlLk6GJQsqaUBKTNV-1" source="36LwxEdcm0CLBOZFysbZ-17" target="36LwxEdcm0CLBOZFysbZ-474">
          <mxGeometry width="50" height="50" relative="1" as="geometry">
            <mxPoint x="390" y="660" as="sourcePoint" />
            <mxPoint x="440" y="610" as="targetPoint" />
          </mxGeometry>
        </mxCell>
        <mxCell id="36LwxEdcm0CLBOZFysbZ-481" value="" style="endArrow=classic;html=1;rounded=0;exitX=1;exitY=0.5;exitDx=0;exitDy=0;entryX=0;entryY=0.5;entryDx=0;entryDy=0;" edge="1" parent="WIyWlLk6GJQsqaUBKTNV-1" source="36LwxEdcm0CLBOZFysbZ-17" target="36LwxEdcm0CLBOZFysbZ-475">
          <mxGeometry width="50" height="50" relative="1" as="geometry">
            <mxPoint x="390" y="660" as="sourcePoint" />
            <mxPoint x="440" y="610" as="targetPoint" />
          </mxGeometry>
        </mxCell>
        <mxCell id="36LwxEdcm0CLBOZFysbZ-482" value="" style="endArrow=classic;html=1;rounded=0;exitX=1;exitY=0.5;exitDx=0;exitDy=0;entryX=-0.007;entryY=0.334;entryDx=0;entryDy=0;entryPerimeter=0;" edge="1" parent="WIyWlLk6GJQsqaUBKTNV-1" source="36LwxEdcm0CLBOZFysbZ-17" target="36LwxEdcm0CLBOZFysbZ-477">
          <mxGeometry width="50" height="50" relative="1" as="geometry">
            <mxPoint x="390" y="660" as="sourcePoint" />
            <mxPoint x="440" y="610" as="targetPoint" />
          </mxGeometry>
        </mxCell>
        <mxCell id="36LwxEdcm0CLBOZFysbZ-484" value="공모 기업 추가" style="ellipse;whiteSpace=wrap;html=1;" vertex="1" parent="WIyWlLk6GJQsqaUBKTNV-1">
          <mxGeometry x="489.5" y="799" width="100.5" height="51" as="geometry" />
        </mxCell>
        <mxCell id="36LwxEdcm0CLBOZFysbZ-486" value="관심 기업 알림" style="ellipse;whiteSpace=wrap;html=1;" vertex="1" parent="WIyWlLk6GJQsqaUBKTNV-1">
          <mxGeometry x="210" y="276.5" width="110" height="50" as="geometry" />
        </mxCell>
        <mxCell id="36LwxEdcm0CLBOZFysbZ-487" value="" style="endArrow=classic;html=1;rounded=0;exitX=1;exitY=0.75;exitDx=0;exitDy=0;entryX=0;entryY=0.5;entryDx=0;entryDy=0;" edge="1" parent="WIyWlLk6GJQsqaUBKTNV-1" source="36LwxEdcm0CLBOZFysbZ-0" target="36LwxEdcm0CLBOZFysbZ-486">
          <mxGeometry width="50" height="50" relative="1" as="geometry">
            <mxPoint x="470" y="380" as="sourcePoint" />
            <mxPoint x="520" y="330" as="targetPoint" />
          </mxGeometry>
        </mxCell>
        <mxCell id="36LwxEdcm0CLBOZFysbZ-488" value="공모 기업 삭제" style="ellipse;whiteSpace=wrap;html=1;" vertex="1" parent="WIyWlLk6GJQsqaUBKTNV-1">
          <mxGeometry x="484.5" y="930" width="107" height="50" as="geometry" />
        </mxCell>
        <mxCell id="36LwxEdcm0CLBOZFysbZ-489" value="공모 기업 수정" style="ellipse;whiteSpace=wrap;html=1;" vertex="1" parent="WIyWlLk6GJQsqaUBKTNV-1">
          <mxGeometry x="489.5" y="860" width="100" height="50" as="geometry" />
        </mxCell>
        <mxCell id="36LwxEdcm0CLBOZFysbZ-490" value="" style="endArrow=classic;html=1;rounded=0;exitX=1;exitY=0.5;exitDx=0;exitDy=0;entryX=0;entryY=0.5;entryDx=0;entryDy=0;" edge="1" parent="WIyWlLk6GJQsqaUBKTNV-1" source="36LwxEdcm0CLBOZFysbZ-18" target="36LwxEdcm0CLBOZFysbZ-484">
          <mxGeometry width="50" height="50" relative="1" as="geometry">
            <mxPoint x="470" y="930" as="sourcePoint" />
            <mxPoint x="520" y="880" as="targetPoint" />
          </mxGeometry>
        </mxCell>
        <mxCell id="36LwxEdcm0CLBOZFysbZ-493" value="" style="endArrow=classic;html=1;rounded=0;exitX=1;exitY=0.5;exitDx=0;exitDy=0;entryX=0;entryY=0.5;entryDx=0;entryDy=0;" edge="1" parent="WIyWlLk6GJQsqaUBKTNV-1" source="36LwxEdcm0CLBOZFysbZ-18" target="36LwxEdcm0CLBOZFysbZ-489">
          <mxGeometry width="50" height="50" relative="1" as="geometry">
            <mxPoint x="470" y="930" as="sourcePoint" />
            <mxPoint x="520" y="880" as="targetPoint" />
          </mxGeometry>
        </mxCell>
        <mxCell id="36LwxEdcm0CLBOZFysbZ-494" value="" style="endArrow=classic;html=1;rounded=0;exitX=1;exitY=0.5;exitDx=0;exitDy=0;entryX=0.065;entryY=0.2;entryDx=0;entryDy=0;entryPerimeter=0;" edge="1" parent="WIyWlLk6GJQsqaUBKTNV-1" source="36LwxEdcm0CLBOZFysbZ-18" target="36LwxEdcm0CLBOZFysbZ-488">
          <mxGeometry width="50" height="50" relative="1" as="geometry">
            <mxPoint x="470" y="930" as="sourcePoint" />
            <mxPoint x="520" y="880" as="targetPoint" />
          </mxGeometry>
        </mxCell>
      </root>
    </mxGraphModel>
  </diagram>
</mxfile>
